<svg height="512" viewBox="0 0 64 64" width="512" xmlns="http://www.w3.org/2000/svg" xmlns:xlink="http://www.w3.org/1999/xlink"><linearGradient id="New_Gradient_Swatch" gradientUnits="userSpaceOnUse" x1="38" x2="38" y1="64.198" y2=".714"><stop offset="0" stop-color="#e93e3a"/><stop offset=".35" stop-color="#ed683c"/><stop offset=".7" stop-color="#f3903f"/><stop offset="1" stop-color="#fdc70c"/></linearGradient><linearGradient id="New_Gradient_Swatch-2" gradientTransform="matrix(.707 .707 -.707 .707 33.435 -15.447)" x1="35.364" x2="35.364" xlink:href="#New_Gradient_Swatch" y1="64.198" y2=".714"/><linearGradient id="New_Gradient_Swatch-3" gradientTransform="matrix(.707 .707 -.707 .707 42.438 -11.719)" x1="35.364" x2="35.364" xlink:href="#New_Gradient_Swatch" y1="64.198" y2=".714"/><linearGradient id="New_Gradient_Swatch-4" x1="33" x2="33" xlink:href="#New_Gradient_Swatch" y1="64.198" y2=".714"/><linearGradient id="New_Gradient_Swatch-5" x1="34" x2="34" xlink:href="#New_Gradient_Swatch" y1="64.198" y2=".714"/><linearGradient id="New_Gradient_Swatch-6" x1="28" x2="28" xlink:href="#New_Gradient_Swatch" y1="64.198" y2=".714"/><linearGradient id="New_Gradient_Swatch-7" x1="37" x2="37" xlink:href="#New_Gradient_Swatch" y1="64.198" y2=".714"/><linearGradient id="New_Gradient_Swatch-8" x1="31" x2="31" xlink:href="#New_Gradient_Swatch" y1="64.198" y2=".714"/><linearGradient id="New_Gradient_Swatch-9" x1="46" x2="46" xlink:href="#New_Gradient_Swatch" y1="64.198" y2=".714"/><linearGradient id="New_Gradient_Swatch-11" x1="49" x2="49" xlink:href="#New_Gradient_Swatch" y1="64.198" y2=".714"/><linearGradient id="New_Gradient_Swatch-12" x1="42" x2="42" xlink:href="#New_Gradient_Swatch" y1="64.198" y2=".714"/><linearGradient id="New_Gradient_Swatch-18" x1="40" x2="40" xlink:href="#New_Gradient_Swatch" y1="64.198" y2=".714"/><linearGradient id="New_Gradient_Swatch-19" x1="52" x2="52" xlink:href="#New_Gradient_Swatch" y1="64.198" y2=".714"/><path d="m35 38h6v2h-6z" fill="url(#New_Gradient_Swatch)"/><path d="m32.364 31.636h6v2h-6z" fill="url(#New_Gradient_Swatch-2)" transform="matrix(.707 -.707 .707 .707 -12.719 34.565)"/><path d="m34.364 42.364h2v6h-2z" fill="url(#New_Gradient_Swatch-3)" transform="matrix(.707 -.707 .707 .707 -21.72 38.296)"/><path d="m57 2h-44a1 1 0 0 0 -1 1v31h-3a3 3 0 0 0 -3 3v4a3 3 0 0 0 3 3v9a1 1 0 0 0 1 1h2v7a1 1 0 0 0 1 1h44a3 3 0 0 0 3-3v-54a3 3 0 0 0 -3-3zm-9 2h4v6l-1.2-1.6a1.036 1.036 0 0 0 -1.6 0l-1.2 1.6zm-24 41.523-8-3.2v-6.646l8-3.2zm-10-41.523h6v27.923l-5.193 2.077h-.807zm-2 32h2v6h-2zm-4 5v-4a1 1 0 0 1 1-1h1v6h-1a1 1 0 0 1 -1-1zm3 3h3.807l.193.077v7.923h-4zm3 10h2a1 1 0 0 0 1-1v-8.123l3 1.2v13.923h-6zm44 5a1 1 0 0 1 -1 1h-35v-13.123l2.1.839a2.995 2.995 0 0 0 5.9-.716v-4.142a3.981 3.981 0 0 0 0-7.716v-4.142a2.995 2.995 0 0 0 -5.9-.716l-2.1.839v-27.123h24v9a1 1 0 0 0 1.8.6l2.2-2.933 2.2 2.933a1 1 0 0 0 .8.4 1.019 1.019 0 0 0 .316-.051 1 1 0 0 0 .684-.949v-9h3a1 1 0 0 1 1 1zm-32-12v-16a1 1 0 0 1 2 0v16a1 1 0 0 1 -2 0zm4-9.722a1.983 1.983 0 0 1 0 3.444z" fill="url(#New_Gradient_Swatch-4)"/><path d="m26 12h16v2h-16z" fill="url(#New_Gradient_Swatch-5)"/><path d="m26 8h4v2h-4z" fill="url(#New_Gradient_Swatch-6)"/><path d="m32 8h10v2h-10z" fill="url(#New_Gradient_Swatch-7)"/><path d="m26 18h10v2h-10z" fill="url(#New_Gradient_Swatch-8)"/><path d="m38 18h16v2h-16z" fill="url(#New_Gradient_Swatch-9)"/><path d="m26 22h16v2h-16z" fill="url(#New_Gradient_Swatch-5)"/><path d="m44 22h10v2h-10z" fill="url(#New_Gradient_Swatch-11)"/><path d="m30 26h24v2h-24z" fill="url(#New_Gradient_Swatch-12)"/><g fill="url(#New_Gradient_Swatch-11)"><path d="m44 30h10v2h-10z"/><path d="m44 34h10v2h-10z"/><path d="m44 38h10v2h-10z"/><path d="m44 42h10v2h-10z"/><path d="m44 46h10v2h-10z"/></g><path d="m32 50h16v2h-16z" fill="url(#New_Gradient_Swatch-18)"/><path d="m50 50h4v2h-4z" fill="url(#New_Gradient_Swatch-19)"/><path d="m26 54h28v2h-28z" fill="url(#New_Gradient_Swatch-18)"/></svg>