<svg id="Layer_5" enable-background="new 0 0 64 64" height="512" viewBox="0 0 64 64" width="512" xmlns="http://www.w3.org/2000/svg" xmlns:xlink="http://www.w3.org/1999/xlink"><linearGradient id="SVGID_1_" gradientUnits="userSpaceOnUse" x1="31.954" x2="31.954" y1="63" y2="1"><stop offset="0" stop-color="#9f2fff"/><stop offset="1" stop-color="#0bb1d3"/></linearGradient><path d="m51.382 49-2.5 5 2.5 5h5.236l2.5-5-2.5-5zm4 8h-2.764l-1.5-3 1.5-3h2.764l1.5 3zm-.382-10h-2v-2h2zm0-4h-2v-2h2zm0-4h-2v-2h2zm8-29c0-3.244-1.724-6.258-4.499-7.865l-1.208-.7-1.193 5.963-2.1 1.4-2.101-1.4-1.193-5.963-1.208.7c-2.774 1.607-4.498 4.621-4.498 7.865 0 2.999 1.519 5.812 4 7.475v8.775l-5.667-4.25c-2.339-1.754-5.186-2.785-8.1-2.963 1.691-1.468 2.767-3.627 2.767-6.037 0-4.411-3.589-8-8-8s-8 3.589-8 8c0 2.41 1.076 4.569 2.767 6.037-2.914.179-5.761 1.209-8.1 2.963l-5.667 4.25v-7.836l2.092-2.092-3.283-15.322h-5.618l-3.283 15.322 2.092 2.092v20.586h-2v18c0 3.309 2.691 6 6 6s6-2.691 6-6v-18h-2v-3.166c.528-.154 1.014-.403 1.387-.743l10.613-7.847v31.756c0 2.206 1.794 4 4 4 1.193 0 2.267-.525 3-1.357.733.832 1.807 1.357 3 1.357 2.206 0 4-1.794 4-4v-31.757l10.539 7.787c.421.38.925.642 1.461.801v10.694c-2.481 1.663-4 4.476-4 7.475 0 4.963 4.038 9 9 9s9-4.037 9-9c0-2.999-1.519-5.812-4-7.475v-29.05c2.481-1.663 4-4.476 4-7.475zm-37.381 11.002c.016 0 .032-.002.047-.002h1.752l-.4 2.801zm3.819-.002h1.123l.849 5.943-1.41 2.821-1.41-2.821zm3.544 2.801-.401-2.801h1.752c.016 0 .032.002.047.002zm-8.982-10.801c0-3.309 2.691-6 6-6s6 2.691 6 6-2.691 6-6 6-6-2.691-6-6zm-13 28v2h-8v-2zm-4 20c-2.206 0-4-1.794-4-4v-12h8v12c0 2.206-1.794 4-4 4zm-2-22v-21.414l-1.908-1.908 2.717-12.678h2.383l2.717 12.678-1.909 1.908v21.414zm43.802-5.517-11.472-8.483h-2.33v34c0 1.103-.897 2-2 2s-2-.897-2-2v-22h-2v22c0 1.103-.897 2-2 2s-2-.897-2-2v-34h-2.33l-11.547 8.544c-.039.035-.082.062-.124.093v-4.887l6.867-5.15c1.648-1.236 3.587-2.059 5.611-2.408l6.523 13.044 6.522-13.044c2.024.349 3.963 1.172 5.611 2.408l6.867 5.15v4.884c-.066-.048-.133-.093-.198-.151zm8.697 14.461c2.159 1.251 3.501 3.572 3.501 6.056 0 3.859-3.14 7-7 7s-7-3.141-7-7c0-2.484 1.342-4.805 3.501-6.056l.499-.289v-31.31l-.499-.289c-2.159-1.251-3.501-3.572-3.501-6.056 0-2.034.866-3.951 2.325-5.275l.775 3.878 3.899 2.6 3.899-2.6.775-3.878c1.461 1.324 2.327 3.241 2.327 5.275 0 2.484-1.342 4.805-3.501 6.056l-.499.289v31.311z" fill="url(#SVGID_1_)"/></svg>